#!OML:ASF F:\VICON\USERDATA\INSTALL\Justin_Nancy\Justin_Nancy.ASF
:FULLY-SPECIFIED
:DEGREES
80
root 0.888094 16.2808 5.93425 -4.55378 -71.1874 19.7432
lowerback 15.6844 -0.833971 -3.17657
upperback 2.45227 -1.62233 1.4587
thorax -6.04611 -0.750677 3.68938
lowerneck -13.2169 -5.03236 -10.9876
upperneck 10.5525 -5.99392 9.33148
head 5.97676 -2.69606 4.20707
rclavicle 7.67309e-014 -2.78299e-014
rhumerus -42.3921 2.85975 -75.3986
rradius 123.706
rwrist -1.82034
rhand -25.8763 26.4828
rfingers 7.12502
rthumb 0.665252 -3.49595
lclavicle 7.67309e-014 -2.78299e-014
lhumerus -55.6149 -11.2173 88.637
lradius 100.047
lwrist 21.602
lhand -18.4121 5.75825
lfingers 7.12502
lthumb 7.87256 35.5917
rfemur -7.55763 -0.953761 36.9306
rtibia 30.6607
rfoot -20.8627 -13.527
rtoes 8.29369
lfemur -38.7828 0.86087 1.52914
ltibia 61.9728
lfoot -11.2364 4.25809
ltoes -14.9685
81
root 0.600511 16.3135 6.18861 -2.47973 -71.6601 17.4148
lowerback 15.9579 -0.590751 -2.07874
upperback 2.52978 -1.11905 1.60227
thorax -6.17427 -0.527924 3.1218
lowerneck -13.3803 -5.34599 -10.9801
upperneck 10.6523 -6.43308 9.48087
head 6.08755 -2.89345 4.20574
rclavicle 9.54166e-015 -6.36111e-015
rhumerus -42.3607 3.79457 -76.1582
rradius 124.383
rwrist -3.76722
rhand -26.8273 26.7512
rfingers 7.12502
rthumb -0.253246 -3.22834
lclavicle 9.54166e-015 -6.36111e-015
lhumerus -56.043 -12.2211 88.7286
lradius 100.642
lwrist 21.7347
lhand -18.3461 5.44871
lfingers 7.12502
lthumb 7.93632 35.2797
rfemur -6.23442 -0.235542 37.1649
rtibia 30.7683
rfoot -19.0548 -14.3414
rtoes 0.880889
lfemur -39.0585 0.588451 2.46871
ltibia 58.0368
lfoot -10.6573 4.77406
ltoes -17.2835
82
root 0.282665 16.3659 6.44716 -2.736 -71.9483 17.6963
lowerback 15.7709 -0.491525 -1.63374
upperback 2.67557 -0.931352 1.34997
thorax -5.94092 -0.454371 2.55418
lowerneck -13.7361 -5.47374 -10.1705
upperneck 10.7412 -6.69032 9.16671
head 6.16374 -2.99796 3.93795
rclavicle -3.57812e-014 1.90833e-014
rhumerus -42.3894 5.0482 -77.4477
rradius 124.699
rwrist -4.36519
rhand -27.0511 27.1647
rfingers 7.12502
rthumb -0.469398 -2.81448
lclavicle -3.57812e-014 1.90833e-014
lhumerus -56.2026 -12.8301 88.4282
lradius 101.362
lwrist 21.4857
lhand -17.9602 5.0741
lfingers 7.12502
lthumb 8.30874 34.8907
rfemur -5.35724 0.210863 36.3633
rtibia 31.63
rfoot -17.6621 -14.0053
rtoes -2.94268
lfemur -38.9238 -0.295199 2.46364
ltibia 53.6492
lfoot -9.94069 5.1273
ltoes -20.1972
83
root -0.0308834 16.4246 6.69986 -4.28182 -72.148 19.435
lowerback 15.6131 -0.289158 -1.92205
upperback 2.74371 -0.715038 1.30033
thorax -5.79112 -0.347127 2.61727
lowerneck -14.4723 -5.71294 -10.0602
upperneck 11.3846 -6.96422 8.87399
head 6.50467 -3.12619 3.78247
rclavicle 1.63003e-014 -2.8625e-014
rhumerus -42.6622 6.52483 -78.1132
rradius 124.792
rwrist -3.7068
rhand -26.3066 27.5502
rfingers 7.12502
rthumb 0.24966 -2.4294
lclavicle 1.63003e-014 -2.8625e-014
lhumerus -56.1382 -13.1034 88.5165
lradius 102.083
lwrist 20.8647
lhand -17.2963 5.04834
lfingers 7.12502
lthumb 8.94942 34.8385
rfemur -5.10783 0.052926 34.9233
rtibia 33.3579
rfoot -16.5101 -12.1284
rtoes -2.40021
lfemur -38.6059 -1.65767 2.30321
ltibia 49.001
lfoot -9.44496 4.56346
ltoes -20.6565
84
root -0.333674 16.4694 6.95732 -3.86537 -72.5917 19.2154
lowerback 15.802 0.681966 -3.96968
upperback 2.55963 0.354196 3.45615
thorax -6.1777 0.242935 5.89501
lowerneck -15.1274 -6.38899 -12.1937
upperneck 12.1654 -7.19658 7.63158
head 6.92049 -3.41732 3.67578
rclavicle -7.15625e-015 -6.36111e-015
rhumerus -43.2535 9.14349 -75.0567
rradius 125.041
rwrist -3.44125
rhand -25.2331 27.5421
rfingers 7.12502
rthumb 1.28639 -2.43373
lclavicle -7.15625e-015 -6.36111e-015
lhumerus -55.9141 -12.3701 91.91
lradius 102.361
lwrist 19.8755
lhand -16.5597 4.49347
lfingers 7.12502
lthumb 9.66022 34.252
rfemur -5.55332 -0.744458 34.0958
rtibia 35.9447
rfoot -14.2679 -9.7812
rtoes -2.59178
lfemur -38.1694 -2.53698 2.85815
ltibia 44.3353
lfoot -8.73887 3.68372
ltoes -21.989
85
root -0.65686 16.5233 7.2207 -3.85467 -73.375 19.4222
lowerback 15.0958 0.195444 -0.824166
upperback 2.82944 0.0875928 1.04861
thorax -5.46212 0.0192884 1.56108
lowerneck -15.2581 -6.15721 -9.76405
upperneck 11.9129 -7.60691 8.94533
head 6.86238 -3.39365 3.66825
rclavicle -8.34896e-015 -1.59028e-015
rhumerus -43.9783 9.87479 -80.0047
rradius 124.854
rwrist -1.84624
rhand -24.2939 27.3795
rfingers 7.12502
rthumb 2.19347 -2.58899
lclavicle -8.34896e-015 -1.59028e-015
lhumerus -55.3125 -14.4814 87.7896
lradius 103.291
lwrist 20.2291
lhand -16.8179 4.05741
lfingers 7.12502
lthumb 9.411 33.8273
rfemur -6.36485 -1.48938 33.1262
rtibia 39.2166
rfoot -10.8437 -7.60204
rtoes -3.45819
lfemur -37.2794 -2.99633 2.96378
ltibia 39.8503
lfoot -8.00724 3.47514
ltoes -24.6333
86
root -0.988155 16.5772 7.48161 -5.71064 -74.4996 21.289
lowerback 14.9227 0.540142 -0.995749
upperback 2.94252 0.500684 0.871122
thorax -5.26132 0.219545 1.39062
lowerneck -15.0903 -6.13915 -9.32617
upperneck 11.6342 -7.65512 8.82556
head 6.72675 -3.4128 3.55561
rclavicle -5.725e-014 1.51076e-014
rhumerus -44.6139 11.8748 -80.9138
rradius 124.564
rwrist -0.0294445
rhand -22.8485 26.9979
rfingers 7.12502
rthumb 3.58938 -2.9516
lclavicle -5.725e-014 1.51076e-014
lhumerus -54.8834 -14.8509 87.4494
lradius 104.059
lwrist 20.2018
lhand -17.5836 4.58676
lfingers 7.12502
lthumb 8.6722 34.3886
rfemur -7.17932 -2.01495 31.6566
rtibia 43.0042
rfoot -7.57816 -4.86691
rtoes -1.07866
lfemur -35.6912 -4.30635 2.97446
ltibia 35.8005
lfoot -7.42543 4.11445
ltoes -24.6538
